HIERARCHY
ROOT Hips
{
	OFFSET -3.958830 18.904000 13.208200
	CHANNELS 6 Xposition Yposition Zposition Zrotation Yrotation Xrotation 
	JOINT LHipJoint
	{
		OFFSET 0.000000 0.000000 0.000000
		CHANNELS 3 Zrotation Yrotation Xrotation
		JOINT LeftUpLeg
		{
			OFFSET 1.800000 -1.400000 0.085000
			CHANNELS 3 Zrotation Yrotation Xrotation
			JOINT LeftLeg
			{
				OFFSET 2.215000 -6.000000 0.000000
				CHANNELS 3 Zrotation Yrotation Xrotation
				JOINT LeftFoot
				{
					OFFSET 2.500000 -6.900000 0.000000
					CHANNELS 3 Zrotation Yrotation Xrotation
					JOINT LeftToeBase
					{
						OFFSET 0.200000 -0.500000 1.950000
						CHANNELS 3 Zrotation Yrotation Xrotation
						End Site
						{
							OFFSET 0.000000 0.000000 0.000000
						}
					}
				}
			}
		}
	}
	JOINT RHipJoint
	{
		OFFSET 0.000000 0.000000 0.000000
		CHANNELS 3 Zrotation Yrotation Xrotation
		JOINT RightUpLeg
		{
			OFFSET -1.800000 -1.400000 0.085000
			CHANNELS 3 Zrotation Yrotation Xrotation
			JOINT RightLeg
			{
				OFFSET -2.215000 -6.000000 0.000000
				CHANNELS 3 Zrotation Yrotation Xrotation
				JOINT RightFoot
				{
					OFFSET -2.500000 -6.900000 0.000000
					CHANNELS 3 Zrotation Yrotation Xrotation
					JOINT RightToeBase
					{
						OFFSET -0.200000 -0.500000 1.950000
						CHANNELS 3 Zrotation Yrotation Xrotation
						End Site
						{
							OFFSET 0.000000 0.000000 0.000000
						}
					}
				}
			}
		}
	}
	JOINT LowerBack
	{
		OFFSET 0.000000 0.000000 0.000000
		CHANNELS 3 Zrotation Yrotation Xrotation
		JOINT Spine
		{
			OFFSET -0.087000 1.940000 -0.288900
			CHANNELS 3 Zrotation Yrotation Xrotation
			JOINT Spine1
			{
				OFFSET 0.000000 1.950000 0.060000
				CHANNELS 3 Zrotation Yrotation Xrotation
				JOINT Neck
				{
					OFFSET 0.000000 0.000000 0.000000
					CHANNELS 3 Zrotation Yrotation Xrotation
					JOINT Neck1
					{
						OFFSET 0.000000 1.600000 0.340000
						CHANNELS 3 Zrotation Yrotation Xrotation
						JOINT Head
						{
							OFFSET 0.000000 1.667000 -0.240000
							CHANNELS 3 Zrotation Yrotation Xrotation
							End Site
							{
								OFFSET 0.000000 0.000000 0.000000
							}
						}
					}
				}
				JOINT LeftShoulder
				{
					OFFSET 0.000000 0.000000 0.000000
					CHANNELS 3 Zrotation Yrotation Xrotation
					JOINT LeftArm
					{
						OFFSET 2.700000 1.550000 -0.730000
						CHANNELS 3 Zrotation Yrotation Xrotation
						JOINT LeftForeArm
						{
							OFFSET 5.450000 0.000000 0.000000
							CHANNELS 3 Zrotation Yrotation Xrotation
							JOINT LeftHand
							{
								OFFSET 3.450000 0.000000 0.000000
								CHANNELS 3 Zrotation Yrotation Xrotation
								JOINT LeftHandIndex1
								{
									OFFSET 0.750000 0.000000 0.000000
									CHANNELS 3 Zrotation Yrotation Xrotation
									End Site
									{
										OFFSET 0.000000 0.000000 0.000000
									}
								}
							}
						}
					}
				}
				JOINT RightShoulder
				{
					OFFSET 0.000000 0.000000 0.000000
					CHANNELS 3 Zrotation Yrotation Xrotation
					JOINT RightArm
					{
						OFFSET -2.700000 1.550000 -0.730000
						CHANNELS 3 Zrotation Yrotation Xrotation
						JOINT RightForeArm
						{
							OFFSET -5.450000 0.000000 0.000000
							CHANNELS 3 Zrotation Yrotation Xrotation
							JOINT RightHand
							{
								OFFSET -3.450000 0.000000 0.000000
								CHANNELS 3 Zrotation Yrotation Xrotation
								JOINT RightHandIndex1
								{
									OFFSET -0.750000 0.000000 0.000000
									CHANNELS 3 Zrotation Yrotation Xrotation
									End Site
									{
										OFFSET 0.000000 0.000000 0.000000
									}
								}
							}
						}
					}
				}
			}
		}
	}
}
MOTION
Frames: 4
Frame Time: 0.016667
1.388260 15.835920 -0.821350 -0.374630 -7.938896 7.427889 -14.988313 12.437444 2.873929 6.152427 -2.709757 -16.162787 -15.091109 7.883754 15.139166 -1.359220 5.621370 2.794616 1.139840 0.413740 0.962050 18.637183 -9.683004 3.742744 0.791211 7.066303 -35.538483 6.583418 -2.419526 5.850632 0.013681 -1.547262 4.080059 0.685360 0.309270 0.216340 -4.380736 -1.451883 -7.403665 15.650558 -5.630971 11.284504 -9.974292 -2.968516 8.786867 1.741050 -5.568221 -6.558365 -9.287452 7.482241 19.576885 -6.350280 4.040100 -17.845980 -25.327802 -2.847118 1.373731 -16.123503 9.290525 -1.741771 -101.168464 -38.322997 35.220053 -3.767349 3.480604 0.956370 0.296640 -0.192960 0.419770 21.584123 4.276802 4.479248 20.475097 -10.622099 -6.250646 97.173825 52.179832 42.957159 1.314206 -2.114167 -0.617750 0.612530 -0.170290 -0.713880 
1.428420 15.748720 -0.833190 0.406225 -8.253320 6.858665 -14.992656 12.488459 2.921010 5.189630 -2.778288 -15.991401 -15.368378 8.309959 16.584632 -1.290128 5.771572 2.729417 1.091510 0.361790 0.952470 18.616376 -9.669274 3.799151 0.059556 7.067183 -36.417430 6.702723 -2.507855 6.290968 0.022160 -1.525161 4.081328 0.634750 0.285470 0.223740 -4.334293 -1.532080 -7.514962 15.113764 -5.636133 13.044084 -9.907224 -2.812902 7.718484 1.881571 -5.298212 -6.505902 -8.827042 7.271804 19.810803 -7.151440 4.409090 -18.232920 -26.553595 -3.451454 1.145458 -15.392814 9.462740 -2.378033 -93.743321 -36.477872 28.992979 -3.752523 3.431823 0.960290 0.288810 -0.180470 0.385860 22.485452 4.747299 4.636739 22.085564 -10.561811 -7.088888 94.897127 53.375797 42.133449 1.364398 -2.052388 -0.605740 0.583550 -0.148860 -0.722170 
1.460430 15.668500 -0.825810 0.754466 -7.691501 5.763586 -14.978645 12.577349 2.969710 4.850802 -2.881396 -15.819926 -15.442471 8.948307 18.843467 -1.176802 6.069208 2.633623 1.022830 0.289550 0.900330 18.604803 -9.719086 3.812992 -0.686979 7.092119 -37.414242 6.232190 -2.942876 9.848851 0.039159 -1.647563 4.040553 0.576720 0.315580 0.236130 -4.318270 -1.596724 -7.586359 15.360088 -5.995229 14.843712 -9.761860 -2.978135 6.241265 1.923648 -5.277939 -6.303845 -8.795537 6.888728 20.119007 -7.483700 4.307330 -17.067670 -28.196533 -3.824117 0.829094 -15.963075 9.381657 -3.053453 -84.834476 -35.403306 23.772203 -3.765853 3.399312 0.922110 0.311580 -0.202960 0.376950 23.964564 5.056202 4.668371 22.933089 -10.533545 -7.647649 92.080145 54.301051 40.868073 1.405306 -2.030248 -0.594470 0.560450 -0.122660 -0.700130 
1.488270 15.601550 -0.808030 0.848797 -6.653753 4.538670 -14.962965 12.653231 2.991022 4.674143 -3.013434 -15.778223 -15.077373 9.649001 21.657424 -1.040606 6.408188 2.530450 0.933380 0.214820 0.823200 18.604970 -9.751872 3.861678 -1.748814 7.350253 -39.174838 5.338360 -3.687274 16.236274 0.037304 -2.057152 3.907381 0.519380 0.365330 0.224760 -4.324480 -1.650797 -7.639775 15.995019 -6.471863 16.297760 -9.621984 -3.271823 4.550158 1.963231 -5.283166 -5.968337 -8.827938 6.625590 20.613525 -7.697350 4.266760 -15.022850 -29.715854 -3.878859 0.373389 -17.182072 8.782807 -3.461045 -75.191500 -32.727400 17.987884 -3.789549 3.352790 0.850960 0.350120 -0.248890 0.369320 25.308549 5.006124 4.528969 24.085470 -10.226310 -8.103808 88.171788 55.421584 39.169650 1.450270 -2.009506 -0.589110 0.548260 -0.095250 -0.665220 
